# xmcd
#
# Track frame offsets: 
#        150
#        16293
#        28450
#        44560
#        66875
#        77960
#        98435
#        115718
#        129700
#        147198
#        161138
#        180158
#        192448
#
# Disc length: 2728 seconds
#
# Revision: 6
# Processed by: cddbd v1.5.1PL0 Copyright (c) Steve Scherf et al.
# Submitted via: ExactAudioCopy v0.95a5
#
DISCID=b10aa60d
DTITLE=Various Artist - Jewel Spotlights the Blues- Volume 2
DYEAR=1994
DGENRE=Blues
TTITLE0=Buster Benton - Spider In My Stew
TTITLE1=Buddy Guy - You Sure Can't Do
TTITLE2=Otis Rush - Double Trouble
TTITLE3=Lightnin' Hopkins - Mr. Charlie
TTITLE4=Ike Turner - Matchbox
TTITLE5=Willie Dixon - New Way of Lovin'
TTITLE6=Little Joe Blue - Gonna Walk On
TTITLE7=Lightnin' Hopkins - Breakfast Time
TTITLE8=Buster Benton - Money Is the Name of the Game
TTITLE9=Lowell Fulson - My Baby
TTITLE10=John Lee Hooker - I Feel Good
TTITLE11=Earl Hooker - Blue Guitar
TTITLE12=Magic Sam - Everything Gonna Be Alright
EXTD=LABEL =Jewel Records - Paula Records - Ronn Records - Sue Records, 
EXTD=Inc.\nID =JCD-5016\nUPC =097453-5016-28\nCOPYRIGHT =1994
EXTT0=
EXTT1=
EXTT2=
EXTT3=
EXTT4=
EXTT5=
EXTT6=
EXTT7=
EXTT8=
EXTT9=
EXTT10=
EXTT11=
EXTT12=
PLAYORDER=
